<svg width="18" height="18" fill="none" xmlns="http://www.w3.org/2000/svg"><path d="M13.128 0H4.872A4.878 4.878 0 000 4.872v8.256A4.878 4.878 0 004.872 18h8.256A4.878 4.878 0 0018 13.128V4.872A4.878 4.878 0 0013.128 0zm3.817 13.128a3.822 3.822 0 01-3.817 3.817H4.872a3.821 3.821 0 01-3.817-3.817V4.872a3.821 3.821 0 013.817-3.817h8.256a3.821 3.821 0 013.817 3.817v8.256z" fill="#fff"/><path d="M9 4.219A4.787 4.787 0 004.219 9 4.787 4.787 0 009 13.781 4.787 4.787 0 0013.781 9 4.787 4.787 0 009 4.219zm0 8.537A3.76 3.76 0 015.244 9 3.76 3.76 0 019 5.244 3.76 3.76 0 0112.756 9 3.76 3.76 0 019 12.756zM14.062 2.25c-.775 0-1.406.694-1.406 1.547s.631 1.547 1.406 1.547c.776 0 1.407-.694 1.407-1.547s-.631-1.547-1.407-1.547zm0 1.971c-.212 0-.385-.19-.385-.424 0-.234.173-.425.385-.425.213 0 .386.19.386.425 0 .234-.173.424-.386.424z" fill="#fff"/></svg>