<svg width="187" height="68" fill="none" xmlns="http://www.w3.org/2000/svg"><path d="M87.06 13.396c0-3.885-.963-6.761-2.89-8.628-1.902-1.892-4.693-2.838-8.372-2.838h-3.266v20.13c0 .253.063.467.188.643.125.177.338.316.638.417.3.1.713.176 1.239.227.525.05 1.189.076 1.99.076 1.927 0 3.553-.228 4.88-.682 1.326-.479 2.402-1.148 3.228-2.005.826-.883 1.427-1.943 1.802-3.179.376-1.236.563-2.623.563-4.162zm3.942-.72c0 1.49-.263 2.965-.788 4.428a11.6 11.6 0 01-2.328 3.973c-1.026 1.16-2.34 2.107-3.941 2.838-1.577.707-3.43 1.06-5.556 1.06h-7.696c-.651 0-1.39.013-2.215.038-.826.05-1.627.1-2.403.151A3.277 3.277 0 0166 24.56c0-.354.138-.555.413-.606.926-.227 1.59-.441 1.99-.643.4-.202.6-.53.6-.984V3.066c0-.505-.187-.859-.563-1.06-.375-.202-1.051-.391-2.027-.568a.463.463 0 01-.338-.227A1.118 1.118 0 0166 .795c0-.152.025-.354.075-.606.526.05.976.088 1.352.114.4 0 .775.012 1.126.038.35.025.688.037 1.013.037h8.785c2.102 0 3.942.328 5.518.984 1.602.656 2.929 1.54 3.98 2.65a10.85 10.85 0 012.365 3.897c.525 1.488.788 3.077.788 4.768zm18.952-.302c.1-.076.326-.315.676-.719.35-.404.801-.832 1.351-1.287.576-.454 1.227-.87 1.952-1.248a5.267 5.267 0 012.403-.568c1.502 0 2.565.454 3.191 1.362.626.883.939 2.12.939 3.709v9.195c0 .378.225.668.675.87a8.11 8.11 0 001.502.417c.225.05.338.201.338.454 0 .151-.025.353-.075.605-.651-.05-1.289-.1-1.915-.151a53.417 53.417 0 00-4.017 0c-.675.05-1.326.1-1.952.151a3.284 3.284 0 01-.075-.605c0-.253.113-.404.338-.454.225-.026.45-.076.676-.152.25-.075.475-.164.675-.265.201-.1.363-.214.488-.34a.727.727 0 00.226-.53v-7.795c0-1.564-.188-2.611-.563-3.141-.376-.555-.989-.832-1.84-.832-.651 0-1.276.113-1.877.34a4.243 4.243 0 00-1.539.946 4.506 4.506 0 00-1.089 1.514c-.275.605-.413 1.299-.413 2.081v6.887c0 .378.213.668.638.87.426.177.901.316 1.427.417.225.05.338.201.338.454 0 .151-.025.353-.075.605-.651-.05-1.289-.1-1.915-.151a45.76 45.76 0 00-1.914-.038c-.676 0-1.352.013-2.028.038l-1.952.151a3.284 3.284 0 01-.075-.605c0-.253.113-.404.338-.454a6.779 6.779 0 001.352-.379c.475-.202.713-.504.713-.908v-7.795c0-1.564-.188-2.611-.563-3.141-.351-.555-.951-.832-1.802-.832a5.26 5.26 0 00-1.877.34 4.626 4.626 0 00-1.577.946 4.501 4.501 0 00-1.089 1.514c-.275.605-.413 1.299-.413 2.081v6.887c0 .378.213.668.639.87.45.177.926.316 1.426.417.225.05.338.201.338.454 0 .151-.025.353-.075.605-.651-.05-1.289-.1-1.915-.151a53.464 53.464 0 00-4.054 0c-.65.05-1.289.1-1.915.151a3.286 3.286 0 01-.075-.605c0-.253.113-.404.338-.454a8.131 8.131 0 001.502-.417c.45-.201.675-.504.675-.908V12.487c0-.756-.137-1.299-.412-1.627-.25-.328-.814-.53-1.69-.605-.325-.05-.488-.227-.488-.53 0-.126.025-.29.075-.492.326 0 .776-.012 1.352-.038.6-.05 1.088-.1 1.464-.151a33.852 33.852 0 001.539-.303c.45-.126.776-.189.976-.189.35 0 .526.19.526.568 0 .353-.038.782-.113 1.286-.075.48-.113 1.123-.113 1.93.075-.076.288-.315.639-.719.35-.404.8-.832 1.351-1.286a10.693 10.693 0 011.952-1.211 5.12 5.12 0 012.403-.568c1.301 0 2.265.34 2.89 1.022.651.656 1.039 1.589 1.164 2.8zm19.297 12.601h-1.314c-.425.025-.825.05-1.201.076-.375.025-.701.05-.976.075-.275.025-.45.038-.526.038 0-.025-.012-.113-.037-.265a2.314 2.314 0 01-.038-.34c0-.253.113-.404.338-.454.651-.127 1.177-.278 1.577-.454.4-.177.601-.467.601-.87V12.487c0-.757-.138-1.3-.413-1.628-.251-.328-.814-.53-1.69-.605-.325-.05-.488-.227-.488-.53 0-.126.025-.29.075-.492.326 0 .776-.012 1.352-.038.601-.05 1.089-.1 1.464-.151a33.581 33.581 0 001.539-.303c.451-.126.776-.189.976-.189.351 0 .526.19.526.568 0 .353-.038.782-.113 1.286-.075.48-.112 1.123-.112 1.93V22.78c0 .404.187.694.563.87.4.177.951.329 1.651.455.201.05.301.201.301.454 0 .075-.013.189-.038.34 0 .152-.012.24-.037.265a7.91 7.91 0 01-.526-.038 29.36 29.36 0 00-.938-.075c-.376-.026-.789-.05-1.239-.076h-1.277zm-2.177-22.742c0-.606.2-1.123.601-1.552A2.073 2.073 0 01129.251 0a1.92 1.92 0 011.502.681c.4.429.601.946.601 1.552 0 .656-.201 1.185-.601 1.589-.4.404-.901.605-1.502.605-.625 0-1.151-.201-1.576-.605-.401-.404-.601-.933-.601-1.59zm17.248 20.509c.125-.126.225-.201.3-.227.1-.025.175-.038.225-.038.225 0 .426.164.601.492a9.208 9.208 0 01-2.102 1.779 4.567 4.567 0 01-2.403.681c-.501 0-.976-.063-1.427-.19a2.32 2.32 0 01-1.163-.643c-.326-.327-.588-.769-.789-1.324-.175-.58-.263-1.324-.263-2.232V10.595h-2.252v-.416c0-.176.025-.34.075-.492.075-.151.213-.227.413-.227.676 0 1.226-.176 1.652-.53a4.119 4.119 0 001.051-1.362c.3-.605.563-1.173.788-1.703.226-.53.476-.794.751-.794h.676v3.935h4.392c0 .53-.062.934-.187 1.211-.101.252-.301.378-.601.378h-3.604v9.385c0 .807.037 1.463.113 1.968.075.479.187.857.337 1.135.151.252.326.416.526.492.2.076.425.113.676.113.425 0 .813-.088 1.163-.264a7.539 7.539 0 001.052-.682zM157.748 8.59c.726 0 1.264.176 1.614.53.35.353.526.744.526 1.173 0 .151-.025.29-.075.416-.051.126-.176.265-.376.416a9.88 9.88 0 01-.788.492c-.326.177-.789.404-1.389.681a3.296 3.296 0 00-.826-.719 1.775 1.775 0 00-1.014-.302 1.95 1.95 0 00-1.164.378c-.35.227-.65.555-.901.984-.25.404-.45.883-.6 1.438a7.229 7.229 0 00-.188 1.665v6.508c0 .555.288.972.864 1.25.575.251 1.401.453 2.477.605.251.05.376.201.376.454 0 .151-.025.353-.075.605-.276-.025-.626-.05-1.052-.076-.4 0-.825-.012-1.276-.037-.45-.026-.913-.05-1.389-.076h-1.314c-.676 0-1.376.013-2.102.038-.726.05-1.414.1-2.065.151a3.284 3.284 0 01-.075-.605c0-.253.113-.404.338-.454a5.884 5.884 0 001.502-.454c.45-.202.675-.492.675-.87v-9.612c0-.53-.037-.972-.112-1.325-.05-.353-.151-.63-.301-.832-.15-.227-.375-.391-.675-.492-.276-.101-.639-.177-1.089-.227-.325-.05-.488-.215-.488-.492 0-.152.025-.328.075-.53.325 0 .776-.013 1.351-.038.601-.05 1.089-.1 1.464-.151a22.494 22.494 0 001.427-.303c.426-.126.738-.19.939-.19.35 0 .525.19.525.568v2.536c.801-.883 1.602-1.615 2.403-2.195a4.585 4.585 0 012.778-.908zm7.504 16.385h-1.314c-.425.025-.825.05-1.201.076-.375.025-.701.05-.976.075-.275.025-.45.038-.525.038a3.09 3.09 0 00-.038-.265 2.314 2.314 0 01-.038-.34c0-.253.113-.404.338-.454.651-.127 1.177-.278 1.577-.454.4-.177.601-.467.601-.87V12.487c0-.757-.138-1.3-.413-1.628-.251-.328-.814-.53-1.69-.605-.325-.05-.488-.227-.488-.53 0-.126.025-.29.075-.492.326 0 .776-.012 1.352-.038.601-.05 1.089-.1 1.464-.151a33.581 33.581 0 001.539-.303c.451-.126.776-.189.976-.189.351 0 .526.19.526.568 0 .353-.038.782-.113 1.286-.075.48-.112 1.123-.112 1.93V22.78c0 .404.187.694.563.87.4.177.951.329 1.652.455.2.05.3.201.3.454 0 .075-.013.189-.038.34 0 .152-.012.24-.037.265a7.91 7.91 0 01-.526-.038 29.36 29.36 0 00-.938-.075c-.376-.026-.789-.05-1.239-.076h-1.277zm-2.177-22.742c0-.606.2-1.123.601-1.552A2.073 2.073 0 01165.252 0a1.92 1.92 0 011.502.681c.4.429.601.946.601 1.552 0 .656-.201 1.185-.601 1.589-.4.404-.901.605-1.502.605-.625 0-1.151-.201-1.576-.605-.401-.404-.601-.933-.601-1.59zm15.966 18.617c.376-.958.789-1.942 1.239-2.951.451-1.035.864-2.006 1.239-2.914.4-.908.726-1.728.976-2.46.25-.731.376-1.274.376-1.627a.513.513 0 00-.301-.492 2.746 2.746 0 00-.676-.303c-.225-.1-.438-.189-.638-.264-.2-.101-.3-.253-.3-.454 0-.05.012-.127.037-.228.025-.1.051-.189.076-.264.976.075 2.014.113 3.115.113h1.502a16.21 16.21 0 001.201-.113.47.47 0 01.075.264c.025.101.038.177.038.228 0 .277-.163.454-.488.53a7.768 7.768 0 00-.901.226c-.2.076-.375.177-.526.303-.125.126-.25.29-.375.492-.1.202-.225.492-.375.87l-7.696 18.315c-.501 1.211-1.252 2.17-2.253 2.876-1.001.707-2.077 1.06-3.228 1.06-.2 0-.351-.063-.451-.19a.617.617 0 01-.112-.378c0-.277.037-.58.112-.908.075-.303.175-.593.301-.87a3.11 3.11 0 01.413-.644c.175-.151.35-.227.525-.227.2 0 .376.013.526.038.175.05.363.076.563.076.676 0 1.176-.139 1.501-.416.326-.253.614-.669.864-1.25l1.914-4.502-5.781-12.98c-.175-.353-.325-.63-.45-.832a1.845 1.845 0 00-.413-.53 1.114 1.114 0 00-.526-.303 4.046 4.046 0 00-.788-.189c-.326-.076-.488-.265-.488-.567v-.228a.841.841 0 01.112-.264c.501.05 1.001.088 1.502.113h4.542a33.036 33.036 0 001.577-.113.47.47 0 01.075.264c.025.101.038.177.038.228 0 .302-.163.466-.488.491-.576.101-.964.215-1.164.341-.2.1-.3.252-.3.454 0 .126.075.442.225.946.15.505.4 1.135.751 1.892l3.303 7.341zM72.382 55.323v9.574c0 .505.15.858.45 1.06.326.201.914.39 1.765.567a.57.57 0 01.3.152c.075.075.113.214.113.416 0 .176-.025.39-.075.643-.801-.05-1.564-.1-2.29-.151a58.661 58.661 0 00-4.242 0c-.801.05-1.577.1-2.328.151A3.277 3.277 0 0166 67.13c0-.353.125-.555.375-.606.951-.202 1.602-.39 1.953-.567.35-.202.525-.555.525-1.06v-19.26c0-.505-.175-.859-.525-1.06-.35-.227-1.002-.417-1.953-.568-.25-.025-.375-.24-.375-.643 0-.152.025-.354.075-.606.726.05 1.502.101 2.328.151.825.026 1.551.038 2.177.038.65 0 1.377-.012 2.177-.038l2.403-.15c.05.251.075.453.075.605 0 .378-.125.592-.375.643-.951.151-1.602.34-1.953.568-.35.201-.525.555-.525 1.06v9.157l8.71-8.704c.15-.151.275-.315.375-.492a1.14 1.14 0 00.188-.605c0-.278-.15-.48-.451-.606-.275-.151-.65-.265-1.126-.34-.25-.025-.376-.252-.376-.681 0-.152.025-.354.076-.606l2.177.151c.726.026 1.389.038 1.99.038.55 0 1.126-.012 1.726-.038.626-.05 1.19-.1 1.69-.15.05.251.075.453.075.605 0 .403-.138.643-.413.719-.55.1-1.064.252-1.54.454-.475.201-.938.517-1.388.946l-8.447 8.4 10.249 11.126c.425.454.85.782 1.276.983.425.202.939.354 1.54.454.3.026.45.24.45.644 0 .176-.025.39-.075.643-.776-.05-1.627-.1-2.553-.151a68.363 68.363 0 00-4.618 0c-.776.05-1.589.1-2.44.151a3.277 3.277 0 01-.075-.605c0-.379.138-.58.413-.606 1.126-.076 1.69-.403 1.69-.984 0-.252-.126-.504-.376-.757l-8.747-9.46zm17.402 4.239c0-1.161.213-2.258.638-3.293a8.71 8.71 0 011.802-2.686 8.226 8.226 0 012.628-1.779 8.071 8.071 0 013.304-.681c1.226 0 2.352.214 3.378.643 1.027.404 1.903.971 2.628 1.703.751.732 1.327 1.627 1.727 2.687.426 1.034.638 2.17.638 3.406a8.255 8.255 0 01-.675 3.33 8.306 8.306 0 01-1.765 2.648 8.634 8.634 0 01-2.665 1.817c-1.001.429-2.09.643-3.266.643-1.227 0-2.353-.202-3.379-.606a8.434 8.434 0 01-2.665-1.74c-.726-.732-1.302-1.615-1.727-2.649-.4-1.034-.6-2.182-.6-3.444zm3.529-1.25c0 .934.1 1.893.3 2.877.2.983.5 1.88.901 2.686a6.524 6.524 0 001.615 1.968c.65.505 1.439.757 2.365.757 1.426 0 2.527-.505 3.303-1.514.801-1.009 1.202-2.308 1.202-3.897 0-.934-.101-1.905-.301-2.914-.175-1.034-.475-1.968-.901-2.8-.4-.858-.938-1.564-1.614-2.12-.65-.554-1.464-.832-2.44-.832-1.327 0-2.403.467-3.229 1.4-.8.908-1.201 2.372-1.201 4.39zm24.649 7.001c.126-.126.226-.201.301-.227.1-.025.175-.038.225-.038.225 0 .425.164.601.492a9.191 9.191 0 01-2.103 1.779 4.562 4.562 0 01-2.402.681c-.501 0-.976-.063-1.427-.19-.45-.1-.838-.315-1.164-.642-.325-.329-.588-.77-.788-1.325-.175-.58-.263-1.324-.263-2.233V53.166h-2.252v-.416c0-.176.025-.34.075-.492.075-.151.213-.227.413-.227.676 0 1.226-.176 1.652-.53a4.132 4.132 0 001.051-1.362c.3-.605.563-1.173.788-1.703.225-.53.476-.794.751-.794h.676v3.935h4.392c0 .53-.063.934-.188 1.211-.1.252-.3.378-.6.378h-3.604v9.385c0 .807.037 1.463.112 1.968.075.479.188.857.338 1.135.15.252.326.416.526.492.2.076.425.113.675.113.426 0 .814-.088 1.164-.265a7.47 7.47 0 001.051-.68zm2.361-5.751c0-1.161.212-2.258.638-3.293a8.698 8.698 0 011.802-2.686 8.23 8.23 0 012.628-1.779 8.069 8.069 0 013.303-.681c1.227 0 2.353.214 3.379.643a7.536 7.536 0 012.628 1.703c.751.732 1.326 1.627 1.727 2.687.425 1.034.638 2.17.638 3.406a8.24 8.24 0 01-.676 3.33 8.287 8.287 0 01-1.764 2.648 8.626 8.626 0 01-2.666 1.817c-1.001.429-2.089.643-3.266.643-1.226 0-2.352-.202-3.378-.606a8.44 8.44 0 01-2.666-1.74c-.725-.732-1.301-1.615-1.727-2.649-.4-1.034-.6-2.182-.6-3.444zm3.529-1.25c0 .934.1 1.893.3 2.877.2.983.5 1.88.901 2.686a6.511 6.511 0 001.614 1.968c.651.505 1.439.757 2.365.757 1.427 0 2.528-.505 3.304-1.514.801-1.009 1.201-2.308 1.201-3.897 0-.934-.1-1.905-.3-2.914-.175-1.034-.476-1.968-.901-2.8-.401-.858-.939-1.564-1.614-2.12-.651-.554-1.465-.832-2.441-.832-1.326 0-2.402.467-3.228 1.4-.801.908-1.201 2.372-1.201 4.39zm23.803 5.109c1.201-3.002 2.09-5.31 2.666-6.925.6-1.614.901-2.623.901-3.027a.76.76 0 00-.263-.605c-.15-.177-.538-.316-1.164-.417-.325-.025-.488-.189-.488-.492 0-.05.012-.126.037-.227.026-.1.051-.189.076-.264a40.36 40.36 0 003.115.113h1.502c.451-.025.876-.063 1.276-.113.076.201.113.365.113.492 0 .15-.05.264-.15.34l-.338.227c-.45.278-.888.53-1.314.757-.425.227-.738.593-.938 1.097l-5.444 13.547c-.15.05-.338.076-.563.076a.629.629 0 01-.601-.378c-.1-.228-.275-.631-.525-1.211l-5.143-12.034a5.73 5.73 0 00-.413-.87 1.845 1.845 0 00-.413-.53 1.302 1.302 0 00-.563-.265 5.007 5.007 0 00-.864-.189c-.325-.025-.488-.214-.488-.568 0-.126.038-.29.113-.491.626.05 1.214.088 1.764.113h4.017a51.813 51.813 0 001.915-.113c.075.15.112.315.112.492 0 .302-.162.466-.488.491-.6.101-1.001.215-1.201.341a.492.492 0 00-.263.454c0 .126.075.442.226.946.15.48.387 1.11.713 1.892l3.078 7.341z" fill="#fff"/><path fill-rule="evenodd" clip-rule="evenodd" d="M38 21.185l.33.815L41 19.815l-.081-.2-.168-.415-.081-.2L38 21.185zM41 33v2h5v-2h-5zm-3.556 13l-.444.815L40.556 49l.108-.2.228-.415.108-.2L37.444 46zm-9.627 10l-.817.33L29.187 59l.2-.08.417-.17.196-.08L27.817 56zM13 62h1v-3h-1v3zm4-54.057l.569.057L18 4.057 17.431 4 17 7.943zm3 .971l.396.086L21 6.086 20.604 6 20 8.914zm3-.041l.598.127L25 6.131 24.402 6 23 8.873zm3 .956l.475.171L28 7.175 27.525 7 26 9.829zm3.867-.579l-.278-.17-.133-.08L28 11.67l.544.33L30 9.33l-.133-.08zm2.653.75L30 12.725l.48.275L33 10.275 32.52 10zm2.945 2L32 13.776l.535.224L36 12.22l-.535-.22zm-.13 5L38 14.404 37.665 14 35 16.601l.335.399zm1.942 2L40 17.32l-.277-.32L37 18.68l.277.32zm2.894 4L43 22.239 42.829 22 40 22.761l.171.239zm.046 3L45 25.299 44.783 25 40 25.698l.217.302zm.9 3L45 28.395 44.888 28 41 28.605l.117.395zM41 39.395l3.888.605.112-.395L41.117 39l-.117.395zm-1 2.202L42.874 43l.126-.597L40.13 41l-.13.597zm-1 3.64l2.825.763.175-.237L39.175 45l-.175.237zm-2 4.083L38.815 51l.185-.32L37.185 49l-.185.32zm-2 2.08l2.665 2.6.335-.4-2.67-2.6-.33.4zm-5 3.875L31.68 58l.32-.275L30.32 55l-.32.275zm-4 1.9L26.762 60l.238-.175L26.238 57l-.238.175zm-4 .956L24.098 61l.902-.127L22.894 58l-.894.131zm-2 .955L20.607 62l.393-.086L20.396 59l-.396.086zm-3-.043L17.431 62l.569-.047L17.574 59l-.574.043zm-6 2.91l.569.047.431-2.957-.569-.043L11 61.953zm0-57.896L11.431 8 12 7.943 11.569 4 11 4.057z" fill="#fff"/><path fill-rule="evenodd" clip-rule="evenodd" d="M15.098 0H0l.182 1.105s2.064.553 4.073 1.702v26.595a4.858 4.858 0 00-3.236 4.594 4.854 4.854 0 003.236 4.593v26.596a19.523 19.523 0 01-4.073 1.701L0 68h15.098C34.895 67.987 51 52.742 51 34 50.996 15.258 34.895.013 15.098 0zm24.745 53.997C34.3 59.585 24.876 64.165 8.92 64.277c-.143-1.342-1.247-11.994-1.247-24.647h-.06v-1.114a4.76 4.76 0 00.944-.514L24.97 50.038l.419 1.08c.787 1.885 2.926 1.294 2.926 1.294l6.344 3.08-4.796-5.214c-.148-2.956-3.23-2.524-3.23-2.524L10.318 35.705a4.888 4.888 0 00-.123-3.715l9.783-7.035s.9.36 2.28-.013c1.852-.84 1.492-2.91 1.492-2.91l3.773-6.8-7.067 3.098s-1.506-.432-2.44.498c-1.223 1.23-.817 3.003-.817 3.003l-8.602 8.201a4.784 4.784 0 00-.981-.544v-1.294h.059c0-13.54 1.26-24.792 1.26-24.792v-.214c11.588.081 19.73 2.52 25.439 5.994 8.044 5.614 13.263 14.637 13.263 24.822 0 7.632-2.94 14.611-7.795 19.993z" fill="#fff"/></svg>