<svg width="13" height="18" fill="none" xmlns="http://www.w3.org/2000/svg"><path d="M6.328 0A6.335 6.335 0 000 6.328c0 1.179.327 2.33.945 3.328l5.023 8.095a.527.527 0 00.448.249h.004a.527.527 0 00.448-.256l4.896-8.174a6.32 6.32 0 00.892-3.242A6.335 6.335 0 006.328 0zm4.53 9.029l-4.45 7.43L1.841 9.1a5.267 5.267 0 01-.793-2.772 5.291 5.291 0 015.28-5.28 5.288 5.288 0 015.277 5.28 5.27 5.27 0 01-.746 2.7z" fill="#fff"/><path d="M6.328 3.164a3.168 3.168 0 00-3.164 3.164 3.16 3.16 0 003.164 3.164c1.79 0 3.164-1.45 3.164-3.164a3.168 3.168 0 00-3.164-3.164zm0 5.28c-1.17 0-2.116-.95-2.116-2.116 0-1.163.953-2.116 2.116-2.116a2.12 2.12 0 012.113 2.116 2.114 2.114 0 01-2.113 2.117z" fill="#fff"/></svg>