<svg width="24" height="24" fill="none" xmlns="http://www.w3.org/2000/svg"><path d="M18.52 15.114c-.48-.498-1.06-.764-1.673-.764-.61 0-1.193.262-1.693.76l-1.565 1.552c-.128-.07-.257-.133-.38-.197a6.289 6.289 0 01-.49-.262c-1.466-.926-2.798-2.134-4.075-3.696-.619-.778-1.035-1.434-1.337-2.1.406-.369.782-.753 1.149-1.123l.416-.419c1.04-1.035 1.04-2.375 0-3.41L7.52 4.109c-.153-.152-.312-.31-.46-.468a23.316 23.316 0 00-.93-.917C5.648 2.251 5.074 2 4.47 2c-.603 0-1.187.251-1.682.724l-.01.01-1.683 1.69A3.605 3.605 0 00.02 6.717c-.118 1.44.307 2.78.634 3.657.802 2.154 2 4.15 3.787 6.289 2.168 2.577 4.777 4.613 7.757 6.047 1.139.537 2.659 1.173 4.357 1.281.104.005.212.01.311.01 1.144 0 2.104-.409 2.857-1.222.005-.01.015-.015.02-.025.257-.31.554-.591.866-.892.213-.202.43-.414.643-.636.49-.507.748-1.099.748-1.705 0-.611-.262-1.197-.762-1.69l-2.718-2.716zm1.772 5.19c-.005 0-.005.005 0 0-.193.207-.391.394-.604.601-.322.306-.648.626-.955.986-.5.532-1.09.783-1.862.783-.074 0-.153 0-.227-.005-1.47-.093-2.837-.665-3.862-1.153a21.975 21.975 0 01-7.306-5.697c-1.688-2.026-2.817-3.898-3.565-5.91-.46-1.226-.628-2.182-.554-3.084a2.26 2.26 0 01.683-1.464l1.688-1.68c.243-.227.5-.35.753-.35.312 0 .564.187.722.345l.015.014c.302.281.59.572.891.883.154.157.312.315.47.478l1.352 1.345c.525.522.525 1.005 0 1.528-.144.143-.282.286-.426.424A25.79 25.79 0 016.263 9.55c-.01.01-.02.015-.025.025-.426.424-.346.838-.257 1.119l.014.044c.352.848.847 1.646 1.6 2.597l.004.005c1.367 1.676 2.807 2.982 4.396 3.982.203.128.411.232.61.33.177.089.346.173.49.261.02.01.039.025.059.035.168.084.326.123.49.123.41 0 .668-.256.752-.34l1.693-1.685c.169-.168.436-.37.748-.37.307 0 .56.192.713.36l.01.01 2.727 2.715c.51.503.51 1.02.005 1.543zM12.545 6.313a6.217 6.217 0 013.382 1.755 6.25 6.25 0 011.755 3.383.659.659 0 00.652.549c.04 0 .074-.005.113-.01a.662.662 0 00.544-.765 7.562 7.562 0 00-2.122-4.093 7.561 7.561 0 00-4.094-2.123.665.665 0 00-.765.54.655.655 0 00.535.764zm11.444 3.923c-.475-2.556-1.79-4.883-3.808-6.734C18.162 1.651 15.625.446 12.837.01c-.39-.064-.758.181-.827.539-.064.362.197.7.592.764 2.49.387 4.76 1.469 6.564 3.12 1.805 1.655 2.98 3.736 3.402 6.018.06.324.363.549.71.549.043 0 .08-.005.123-.01.39-.054.657-.396.588-.754z" fill="#000"/></svg>