<svg width="18" height="18" fill="none" xmlns="http://www.w3.org/2000/svg"><path d="M15.363 0H2.637A2.64 2.64 0 000 2.637v12.726A2.64 2.64 0 002.637 18h12.726A2.64 2.64 0 0018 15.363V2.637A2.64 2.64 0 0015.363 0zm-4.781 11.074v5.871H9.527v-5.87A.527.527 0 009 10.546H7.418V9.492H9a.527.527 0 00.527-.527v-2.11a2.64 2.64 0 012.637-2.636h1.582v1.054h-1.582c-.872 0-1.582.71-1.582 1.582v2.11c0 .291.236.527.527.527h2.489l-.264 1.055H11.11a.527.527 0 00-.527.527zm6.363 4.29c0 .872-.71 1.581-1.582 1.581h-3.726v-5.343h2.11a.527.527 0 00.51-.4l.528-2.11a.528.528 0 00-.512-.655h-2.636V6.856c0-.29.236-.527.527-.527h2.11a.527.527 0 00.527-.527V3.69a.527.527 0 00-.528-.527h-2.109a3.696 3.696 0 00-3.691 3.691v1.582H6.89a.527.527 0 00-.528.528v2.11c0 .29.236.523.528.523h1.582v5.347H2.637c-.873 0-1.582-.71-1.582-1.582V2.637c0-.873.71-1.582 1.582-1.582h12.726c.873 0 1.582.71 1.582 1.582v12.726z" fill="#fff"/></svg>