<svg width="18" height="18" fill="none" xmlns="http://www.w3.org/2000/svg"><path d="M13.89 11.336c-.36-.374-.795-.573-1.255-.573-.457 0-.895.196-1.27.569l-1.173 1.164-.286-.148a4.538 4.538 0 01-.367-.195c-1.1-.695-2.098-1.6-3.056-2.773-.464-.584-.776-1.075-1.003-1.574.305-.277.587-.566.862-.843.104-.103.208-.21.312-.314.78-.776.78-1.782 0-2.558L5.64 3.082c-.115-.115-.234-.233-.345-.351-.223-.23-.457-.466-.698-.688-.36-.354-.791-.543-1.244-.543-.453 0-.891.189-1.262.543l-.008.008L.821 3.319a2.7 2.7 0 00-.806 1.718c-.089 1.08.23 2.085.476 2.743.601 1.615 1.5 3.112 2.84 4.716a17.461 17.461 0 005.818 4.536c.854.402 1.994.88 3.267.96.078.004.16.008.234.008.857 0 1.578-.307 2.142-.917.004-.007.011-.01.015-.018.193-.233.416-.444.65-.67.16-.15.323-.31.482-.476.368-.38.561-.824.561-1.279 0-.458-.197-.898-.572-1.268l-2.038-2.036zm1.33 3.892c-.005 0-.005.004 0 0-.146.155-.294.296-.454.45-.241.23-.486.47-.716.74-.375.4-.817.588-1.396.588-.056 0-.115 0-.171-.004-1.103-.07-2.128-.499-2.896-.865a16.482 16.482 0 01-5.48-4.273C2.84 10.345 1.994 8.941 1.434 7.432c-.346-.92-.472-1.637-.416-2.313.037-.433.204-.791.512-1.098l1.266-1.26c.182-.17.375-.263.564-.263.234 0 .424.14.543.259l.01.01c.227.211.443.43.669.662.115.119.234.237.353.359l1.013 1.009c.394.392.394.754 0 1.146-.107.107-.211.214-.319.318-.312.318-.609.613-.932.902-.007.007-.015.01-.018.018-.32.318-.26.628-.194.84l.012.032c.263.636.634 1.235 1.199 1.948l.004.004c1.024 1.257 2.105 2.236 3.296 2.987.153.096.309.173.457.247.134.067.26.13.368.196.015.008.03.019.044.026a.807.807 0 00.368.092.794.794 0 00.564-.255l1.27-1.264c.126-.125.327-.277.56-.277.23 0 .42.144.535.27l.008.007 2.045 2.037c.383.377.383.765.004 1.157zM9.409 4.735a4.662 4.662 0 012.536 1.316 4.687 4.687 0 011.317 2.537c.04.243.25.412.489.412.03 0 .055-.004.084-.007a.497.497 0 00.408-.574 5.672 5.672 0 00-1.592-3.07 5.67 5.67 0 00-3.07-1.592.499.499 0 00-.573.404.491.491 0 00.4.574zm8.583 2.942c-.357-1.917-1.342-3.662-2.856-5.05C13.622 1.237 11.719.333 9.628.006c-.292-.047-.569.136-.62.405-.049.271.147.525.444.573a9.405 9.405 0 014.923 2.34c1.354 1.24 2.235 2.802 2.551 4.514.044.242.273.411.533.411.032 0 .06-.004.092-.007.293-.04.493-.298.44-.566z" fill="#fff"/></svg>