<svg width="18" height="18" viewBox="0 0 18 18" fill="none" xmlns="http://www.w3.org/2000/svg">
<path d="M13.1276 0H4.87244C2.18573 0 0 2.18573 0 4.87244V13.1277C0 15.8143 2.18573 18 4.87244 18H13.1277C15.8143 18 18 15.8143 18 13.1277V4.87244C18 2.18573 15.8143 0 13.1276 0V0ZM16.9448 13.1277C16.9448 15.2324 15.2324 16.9448 13.1276 16.9448H4.87244C2.76759 16.9448 1.05524 15.2324 1.05524 13.1277V4.87244C1.05524 2.76759 2.76759 1.05524 4.87244 1.05524H13.1277C15.2324 1.05524 16.9448 2.76759 16.9448 4.87244V13.1277Z" fill="white"/>
<path d="M9 4.21875C6.36357 4.21875 4.21875 6.36357 4.21875 9C4.21875 11.6364 6.36357 13.7812 9 13.7812C11.6364 13.7812 13.7812 11.6364 13.7812 9C13.7812 6.36357 11.6364 4.21875 9 4.21875ZM9 12.7561C6.92896 12.7561 5.24387 11.0712 5.24387 9C5.24387 6.92896 6.92896 5.24387 9 5.24387C11.0712 5.24387 12.7561 6.92896 12.7561 9C12.7561 11.0712 11.0712 12.7561 9 12.7561Z" fill="white"/>
<path d="M14.0624 2.25C13.287 2.25 12.6562 2.94394 12.6562 3.7968C12.6562 4.64981 13.287 5.34375 14.0624 5.34375C14.8379 5.34375 15.4688 4.64981 15.4688 3.7968C15.4688 2.9438 14.8379 2.25 14.0624 2.25ZM14.0624 4.22126C13.8497 4.22126 13.6766 4.03079 13.6766 3.7968C13.6766 3.56266 13.8497 3.37234 14.0624 3.37234C14.2753 3.37234 14.4484 3.56266 14.4484 3.7968C14.4484 4.03079 14.2753 4.22126 14.0624 4.22126Z" fill="white"/>
</svg>
