<svg width="24" height="24" viewBox="0 0 24 24" fill="none" xmlns="http://www.w3.org/2000/svg">
<path d="M18.5199 15.1142C18.0397 14.6165 17.4605 14.3504 16.8467 14.3504C16.2378 14.3504 15.6536 14.6116 15.1536 15.1093L13.5893 16.6617C13.4606 16.5927 13.3319 16.5287 13.2081 16.4646C13.0299 16.3759 12.8616 16.2921 12.7181 16.2034C11.2528 15.2769 9.9211 14.0694 8.64391 12.5072C8.02511 11.7285 7.60928 11.073 7.30731 10.4077C7.71324 10.0381 8.08947 9.65367 8.4558 9.28405C8.59441 9.14606 8.73302 9.00314 8.87163 8.86514C9.9112 7.8302 9.9112 6.4897 8.87163 5.45475L7.52018 4.10932C7.36671 3.95654 7.2083 3.79884 7.05979 3.64113C6.76277 3.33557 6.4509 3.02016 6.12912 2.72446C5.64894 2.25134 5.07469 2 4.47075 2C3.86681 2 3.28266 2.25134 2.78763 2.72446C2.78267 2.72939 2.78268 2.72939 2.77772 2.73432L1.0946 4.42473C0.460953 5.05556 0.0995759 5.82437 0.02037 6.7164C-0.0984388 8.15547 0.327293 9.49597 0.654017 10.3732C1.45598 12.5269 2.65397 14.5228 4.44105 16.6617C6.60931 19.2392 9.21815 21.2746 12.1983 22.7088C13.3369 23.246 14.8566 23.8817 16.5546 23.9901C16.6586 23.9951 16.7675 24 16.8665 24C18.01 24 18.9704 23.591 19.7228 22.7778C19.7278 22.7679 19.7377 22.763 19.7426 22.7531C20.0001 22.4427 20.2971 22.1617 20.6089 21.8611C20.8218 21.659 21.0396 21.4471 21.2525 21.2254C21.7426 20.7177 22 20.1263 22 19.5202C22 18.909 21.7376 18.3226 21.2376 17.8297L18.5199 15.1142ZM20.2921 20.3038C20.2872 20.3038 20.2872 20.3087 20.2921 20.3038C20.0991 20.5108 19.901 20.698 19.6882 20.905C19.3664 21.2106 19.0397 21.5309 18.7328 21.8907C18.2328 22.4229 17.6437 22.6743 16.8714 22.6743C16.7972 22.6743 16.718 22.6743 16.6437 22.6694C15.1734 22.5757 13.8071 22.004 12.7824 21.5161C9.98051 20.1658 7.52018 18.2487 5.47567 15.819C3.7876 13.7935 2.65892 11.9207 1.91141 9.90995C1.45103 8.6828 1.28271 7.7267 1.35697 6.82482C1.40647 6.24821 1.62924 5.77016 2.04012 5.36111L3.72819 3.68056C3.97076 3.45385 4.22818 3.33065 4.48065 3.33065C4.79252 3.33065 5.04499 3.51792 5.2034 3.67563C5.20835 3.68056 5.21331 3.68548 5.21826 3.69041C5.52023 3.97133 5.80735 4.2621 6.10932 4.57258C6.26278 4.73029 6.42119 4.88799 6.57961 5.05063L7.93106 6.39606C8.4558 6.91846 8.4558 7.40143 7.93106 7.92384C7.7875 8.06676 7.64889 8.20968 7.50532 8.34767C7.08949 8.7715 6.69346 9.16577 6.26278 9.55018C6.25288 9.56004 6.24298 9.56496 6.23803 9.57482C5.8123 9.99866 5.89151 10.4126 5.98061 10.6935C5.98556 10.7083 5.99051 10.7231 5.99546 10.7379C6.34694 11.5856 6.84198 12.384 7.59443 13.3351L7.59938 13.3401C8.96568 15.0157 10.4062 16.3217 11.9953 17.3221C12.1983 17.4503 12.4062 17.5538 12.6042 17.6523C12.7824 17.741 12.9507 17.8248 13.0943 17.9135C13.1141 17.9234 13.1339 17.9382 13.1537 17.948C13.322 18.0318 13.4804 18.0712 13.6438 18.0712C14.0547 18.0712 14.3121 17.815 14.3962 17.7312L16.0893 16.0457C16.2576 15.8781 16.5249 15.6761 16.8368 15.6761C17.1437 15.6761 17.3962 15.8683 17.5496 16.0358C17.5546 16.0408 17.5546 16.0408 17.5595 16.0457L20.2872 18.7612C20.7971 19.2639 20.7971 19.7814 20.2921 20.3038Z" fill="black"/>
<path d="M12.5447 6.31296C13.8291 6.52867 14.9958 7.1366 15.9273 8.0681C16.8587 8.9996 17.4617 10.1664 17.6823 11.4509C17.7362 11.7745 18.0156 12 18.3342 12C18.3735 12 18.4078 11.9951 18.447 11.9902C18.8098 11.9314 19.05 11.5882 18.9911 11.2254C18.7264 9.67126 17.9911 8.2544 16.8685 7.1317C15.7459 6.009 14.3291 5.2736 12.7751 5.00886C12.4124 4.95003 12.0741 5.19026 12.0104 5.54815C11.9467 5.90604 12.182 6.25413 12.5447 6.31296Z" fill="black"/>
<path d="M23.989 10.236C23.5137 7.67952 22.1998 5.35322 20.181 3.50197C18.1622 1.65073 15.6254 0.445954 12.8375 0.0100797C12.4476 -0.0535874 12.0791 0.191286 12.0096 0.548801C11.9456 0.911214 12.2073 1.24914 12.6025 1.31281C15.0913 1.69971 17.3611 2.78205 19.1663 4.43249C20.9715 6.08784 22.1464 8.16926 22.5684 10.4515C22.6271 10.7747 22.9315 11 23.2787 11C23.3214 11 23.3588 10.9951 23.4015 10.9902C23.7914 10.9363 24.0584 10.5935 23.989 10.236Z" fill="black"/>
</svg>
