<svg width="18" height="18" viewBox="0 0 18 18" fill="none" xmlns="http://www.w3.org/2000/svg">
<path d="M15.3633 0H2.63672C1.18283 0 0 1.18283 0 2.63672V15.3633C0 16.8172 1.18283 18 2.63672 18H15.3633C16.8172 18 18 16.8172 18 15.3633V2.63672C18 1.18283 16.8172 0 15.3633 0ZM10.582 11.0742V16.9453H9.52734V11.0742C9.52734 10.783 9.29123 10.5469 9 10.5469H7.41797V9.49219H9C9.29123 9.49219 9.52734 9.25608 9.52734 8.96484V6.85547C9.52734 5.40158 10.7102 4.21875 12.1641 4.21875H13.7461V5.27344H12.1641C11.2917 5.27344 10.582 5.98314 10.582 6.85547V8.96484C10.582 9.25608 10.8181 9.49219 11.1094 9.49219H13.598L13.3343 10.5469H11.1094C10.8181 10.5469 10.582 10.783 10.582 11.0742ZM16.9453 15.3633C16.9453 16.2356 16.2356 16.9453 15.3633 16.9453H11.6367V11.6016H13.7461C13.9881 11.6016 14.199 11.4369 14.2577 11.2021L14.785 9.09274C14.8683 8.75988 14.6159 8.4375 14.2734 8.4375H11.6367V6.85547C11.6367 6.56469 11.8733 6.32812 12.1641 6.32812H14.2734C14.5647 6.32812 14.8008 6.09202 14.8008 5.80078V3.69141C14.8008 3.40017 14.5647 3.16406 14.2734 3.16406H12.1641C10.1286 3.16406 8.47266 4.82003 8.47266 6.85547V8.4375H6.89062C6.59939 8.4375 6.36328 8.67361 6.36328 8.96484V11.0742C6.36328 11.3655 6.59939 11.598 6.89062 11.598H8.47266V16.9453H2.63672C1.76439 16.9453 1.05469 16.2356 1.05469 15.3633V2.63672C1.05469 1.76439 1.76439 1.05469 2.63672 1.05469H15.3633C16.2356 1.05469 16.9453 1.76439 16.9453 2.63672V15.3633Z" fill="white"/>
</svg>
