<svg width="18" height="18" viewBox="0 0 18 18" fill="none" xmlns="http://www.w3.org/2000/svg">
<path d="M13.8899 11.3357C13.5298 10.9624 13.0954 10.7628 12.635 10.7628C12.1783 10.7628 11.7402 10.9587 11.3652 11.332L10.192 12.4963C10.0955 12.4446 9.99893 12.3965 9.90611 12.3485C9.77245 12.2819 9.64622 12.2191 9.53855 12.1526C8.43956 11.4577 7.44083 10.5521 6.48293 9.38038C6.01883 8.79637 5.70696 8.30477 5.48048 7.80578C5.78493 7.52856 6.0671 7.24026 6.34185 6.96304C6.4458 6.85954 6.54976 6.75235 6.65372 6.64886C7.4334 5.87265 7.4334 4.86727 6.65372 4.09106L5.64013 3.08199C5.52504 2.96741 5.40623 2.84913 5.29484 2.73085C5.07208 2.50168 4.83817 2.26512 4.59684 2.04335C4.2367 1.68851 3.80602 1.5 3.35306 1.5C2.9001 1.5 2.462 1.68851 2.09072 2.04335C2.08701 2.04704 2.08701 2.04704 2.08329 2.05074L0.82095 3.31855C0.345714 3.79167 0.0746819 4.36828 0.0152775 5.0373C-0.0738291 6.1166 0.24547 7.12198 0.490513 7.77991C1.09198 9.39516 1.99047 10.8921 3.33079 12.4963C4.95698 14.4294 6.91361 15.956 9.1487 17.0316C10.0026 17.4345 11.1425 17.9113 12.4159 17.9926C12.4939 17.9963 12.5756 18 12.6499 18C13.5075 18 14.2278 17.6932 14.7921 17.0833C14.7958 17.0759 14.8033 17.0722 14.807 17.0649C15 16.832 15.2228 16.6213 15.4567 16.3958C15.6164 16.2443 15.7797 16.0854 15.9394 15.919C16.3069 15.5383 16.5 15.0948 16.5 14.6401C16.5 14.1818 16.3032 13.7419 15.9282 13.3723L13.8899 11.3357ZM15.2191 15.2278C15.2154 15.2278 15.2154 15.2315 15.2191 15.2278C15.0743 15.3831 14.9258 15.5235 14.7661 15.6788C14.5248 15.9079 14.2798 16.1482 14.0496 16.418C13.6746 16.8172 13.2328 17.0057 12.6536 17.0057C12.5979 17.0057 12.5385 17.0057 12.4828 17.002C11.3801 16.9318 10.3554 16.503 9.58681 16.1371C7.48538 15.1243 5.64013 13.6865 4.10676 11.8642C2.8407 10.3451 1.99419 8.94052 1.43356 7.43246C1.08827 6.5121 0.962035 5.79503 1.01773 5.11862C1.05485 4.68616 1.22193 4.32762 1.53009 4.02083L2.79615 2.76042C2.97807 2.59039 3.17114 2.49798 3.36049 2.49798C3.59439 2.49798 3.78374 2.63844 3.90255 2.75672C3.90627 2.76042 3.90998 2.76411 3.91369 2.76781C4.14017 2.97849 4.35551 3.19657 4.58199 3.42944C4.69709 3.54772 4.8159 3.66599 4.9347 3.78797L5.94829 4.79704C6.34185 5.18884 6.34185 5.55108 5.94829 5.94288C5.84062 6.05007 5.73666 6.15726 5.62899 6.26075C5.31712 6.57863 5.0201 6.87433 4.69709 7.16263C4.68966 7.17003 4.68224 7.17372 4.67852 7.18112C4.35922 7.49899 4.41863 7.80948 4.48546 8.02016C4.48917 8.03125 4.49288 8.04234 4.4966 8.05343C4.7602 8.68918 5.13148 9.28797 5.69582 10.0013L5.69954 10.005C6.72426 11.2618 7.80468 12.2413 8.99648 12.9916C9.1487 13.0877 9.30464 13.1653 9.45315 13.2392C9.58681 13.3058 9.71305 13.3686 9.82072 13.4351C9.83557 13.4425 9.85042 13.4536 9.86527 13.461C9.9915 13.5239 10.1103 13.5534 10.2328 13.5534C10.541 13.5534 10.7341 13.3612 10.7972 13.2984L12.0669 12.0343C12.1932 11.9086 12.3937 11.7571 12.6276 11.7571C12.8578 11.7571 13.0471 11.9012 13.1622 12.0269C13.1659 12.0306 13.1659 12.0306 13.1696 12.0343L15.2154 14.0709C15.5978 14.4479 15.5978 14.836 15.2191 15.2278Z" fill="white"/>
<path d="M9.40856 4.73472C10.3718 4.89651 11.2469 5.35245 11.9454 6.05107C12.644 6.7497 13.0962 7.62481 13.2617 8.58818C13.3021 8.83086 13.5117 9 13.7507 9C13.7801 9 13.8058 8.99632 13.8352 8.99265C14.1073 8.94852 14.2875 8.69114 14.2434 8.41904C14.0448 7.25344 13.4933 6.1908 12.6514 5.34877C11.8094 4.50675 10.7469 3.9552 9.58136 3.75665C9.30929 3.71252 9.0556 3.89269 9.0078 4.16111C8.96001 4.42953 9.13649 4.6906 9.40856 4.73472Z" fill="white"/>
<path d="M17.9918 7.677C17.6353 5.75964 16.6499 4.01491 15.1358 2.62648C13.6217 1.23805 11.719 0.334466 9.6281 0.00755979C9.33569 -0.0401905 9.05931 0.143465 9.00724 0.411601C8.95917 0.68341 9.15544 0.936854 9.45186 0.984605C11.3185 1.27478 13.0208 2.08654 14.3747 3.32437C15.7286 4.56588 16.6098 6.12695 16.9263 7.83861C16.9703 8.08104 17.1986 8.25 17.459 8.25C17.4911 8.25 17.5191 8.24633 17.5511 8.24265C17.8435 8.20225 18.0438 7.94513 17.9918 7.677Z" fill="white"/>
</svg>
